<svg width="1436" height="822" viewBox="0 0 1436 822" fill="none" xmlns="http://www.w3.org/2000/svg">
<g clip-path="url(#clip0_28_653)">
<path d="M0 83.57L21.8591 97.27C43.5587 110.97 87.2769 138.37 130.836 142.48C174.394 146.59 218.112 127.41 261.352 112.34C304.751 97.27 347.831 86.31 391.23 95.9C434.47 105.49 478.188 135.63 521.747 153.44C565.305 171.25 609.024 176.73 652.582 158.92C696.141 141.11 739.859 100.01 783.418 91.79C826.976 83.57 870.695 108.23 914.253 124.67C957.812 141.11 1001.53 149.33 1044.77 142.48C1088.17 135.63 1131.25 113.71 1174.65 109.6C1217.89 105.49 1261.61 119.19 1305.16 126.04C1348.72 132.89 1392.44 132.89 1414.14 132.89H1436V0H1414.14C1392.44 0 1348.72 0 1305.16 0C1261.61 0 1217.89 0 1174.65 0C1131.25 0 1088.17 0 1044.77 0C1001.53 0 957.812 0 914.253 0C870.695 0 826.976 0 783.418 0C739.859 0 696.141 0 652.582 0C609.024 0 565.305 0 521.747 0C478.188 0 434.47 0 391.23 0C347.831 0 304.751 0 261.352 0C218.112 0 174.394 0 130.836 0C87.2769 0 43.5587 0 21.8591 0H0V83.57Z" fill="#FFCCCD"/>
<path d="M0 469.91L21.8591 452.1C43.5587 434.29 87.2769 398.67 130.836 367.16C174.394 335.65 218.112 308.25 261.352 302.77C304.751 297.29 347.831 313.73 391.23 331.54C434.47 349.35 478.188 368.53 521.747 376.75C565.305 384.97 609.024 382.23 652.582 368.53C696.141 354.83 739.859 330.17 783.418 341.13C826.976 352.09 870.695 398.67 914.253 426.07C957.812 453.47 1001.53 461.69 1044.77 447.99C1088.17 434.29 1131.25 398.67 1174.65 363.05C1217.89 327.43 1261.61 291.81 1305.16 287.7C1348.72 283.59 1392.44 310.99 1414.14 324.69L1436 338.39V130.15H1414.14C1392.44 130.15 1348.72 130.15 1305.16 123.3C1261.61 116.45 1217.89 102.75 1174.65 106.86C1131.25 110.97 1088.17 132.89 1044.77 139.74C1001.53 146.59 957.812 138.37 914.253 121.93C870.695 105.49 826.976 80.83 783.418 89.05C739.859 97.27 696.141 138.37 652.582 156.18C609.024 173.99 565.305 168.51 521.747 150.7C478.188 132.89 434.47 102.75 391.23 93.16C347.831 83.57 304.751 94.53 261.352 109.6C218.112 124.67 174.394 143.85 130.836 139.74C87.2769 135.63 43.5587 108.23 21.8591 94.53L0 80.83V469.91Z" fill="#FFC0C1"/>
<path d="M0 543.89L21.8591 541.15C43.5587 538.41 87.2769 532.93 130.836 506.9C174.394 480.87 218.112 434.29 261.352 438.4C304.751 442.51 347.831 497.31 391.23 527.45C434.47 557.59 478.188 563.07 521.747 563.07C565.305 563.07 609.024 557.59 652.582 546.63C696.141 535.67 739.859 519.23 783.418 513.75C826.976 508.27 870.695 513.75 914.253 520.6C957.812 527.45 1001.53 535.67 1044.77 535.67C1088.17 535.67 1131.25 527.45 1174.65 493.2C1217.89 458.95 1261.61 398.67 1305.16 401.41C1348.72 404.15 1392.44 469.91 1414.14 502.79L1436 535.67V335.65L1414.14 321.95C1392.44 308.25 1348.72 280.85 1305.16 284.96C1261.61 289.07 1217.89 324.69 1174.65 360.31C1131.25 395.93 1088.17 431.55 1044.77 445.25C1001.53 458.95 957.812 450.73 914.253 423.33C870.695 395.93 826.976 349.35 783.418 338.39C739.859 327.43 696.141 352.09 652.582 365.79C609.024 379.49 565.305 382.23 521.747 374.01C478.188 365.79 434.47 346.61 391.23 328.8C347.831 310.99 304.751 294.55 261.352 300.03C218.112 305.51 174.394 332.91 130.836 364.42C87.2769 395.93 43.5587 431.55 21.8591 449.36L0 467.17V543.89Z" fill="#FFB4B6"/>
<path d="M0 675.41L21.8591 667.19C43.5587 658.97 87.2769 642.53 130.836 615.13C174.394 587.73 218.112 549.37 261.352 550.74C304.751 552.11 347.831 593.21 391.23 624.72C434.47 656.23 478.188 678.15 521.747 674.04C565.305 669.93 609.024 639.79 652.582 623.35C696.141 606.91 739.859 604.17 783.418 608.28C826.976 612.39 870.695 623.35 914.253 631.57C957.812 639.79 1001.53 645.27 1044.77 639.79C1088.17 634.31 1131.25 617.87 1174.65 582.25C1217.89 546.63 1261.61 491.83 1305.16 489.09C1348.72 486.35 1392.44 535.67 1414.14 560.33L1436 584.99V532.93L1414.14 500.05C1392.44 467.17 1348.72 401.41 1305.16 398.67C1261.61 395.93 1217.89 456.21 1174.65 490.46C1131.25 524.71 1088.17 532.93 1044.77 532.93C1001.53 532.93 957.812 524.71 914.253 517.86C870.695 511.01 826.976 505.53 783.418 511.01C739.859 516.49 696.141 532.93 652.582 543.89C609.024 554.85 565.305 560.33 521.747 560.33C478.188 560.33 434.47 554.85 391.23 524.71C347.831 494.57 304.751 439.77 261.352 435.66C218.112 431.55 174.394 478.13 130.836 504.16C87.2769 530.19 43.5587 535.67 21.8591 538.41L0 541.15V675.41Z" fill="#FFA7A9"/>
<path d="M0 823.37H21.8591C43.5587 823.37 87.2769 823.37 130.836 823.37C174.394 823.37 218.112 823.37 261.352 823.37C304.751 823.37 347.831 823.37 391.23 823.37C434.47 823.37 478.188 823.37 521.747 823.37C565.305 823.37 609.024 823.37 652.582 823.37C696.141 823.37 739.859 823.37 783.418 823.37C826.976 823.37 870.695 823.37 914.253 823.37C957.812 823.37 1001.53 823.37 1044.77 823.37C1088.17 823.37 1131.25 823.37 1174.65 823.37C1217.89 823.37 1261.61 823.37 1305.16 823.37C1348.72 823.37 1392.44 823.37 1414.14 823.37H1436V582.25L1414.14 557.59C1392.44 532.93 1348.72 483.61 1305.16 486.35C1261.61 489.09 1217.89 543.89 1174.65 579.51C1131.25 615.13 1088.17 631.57 1044.77 637.05C1001.53 642.53 957.812 637.05 914.253 628.83C870.695 620.61 826.976 609.65 783.418 605.54C739.859 601.43 696.141 604.17 652.582 620.61C609.024 637.05 565.305 667.19 521.747 671.3C478.188 675.41 434.47 653.49 391.23 621.98C347.831 590.47 304.751 549.37 261.352 548C218.112 546.63 174.394 584.99 130.836 612.39C87.2769 639.79 43.5587 656.23 21.8591 664.45L0 672.67V823.37Z" fill="#FF999B"/>
</g>
<defs>
<clipPath id="clip0_28_653">
<rect width="1436" height="822" fill="white"/>
</clipPath>
</defs>
</svg>
