<?xml version="1.0" encoding="iso-8859-1"?>
<!-- Uploaded to: SVG Repo, www.svgrepo.com, Generator: SVG Repo Mixer Tools -->
<svg height="800px" width="800px" version="1.1" id="Layer_1" xmlns="http://www.w3.org/2000/svg" xmlns:xlink="http://www.w3.org/1999/xlink" 
	 viewBox="0 0 512 512" xml:space="preserve">
<path style="fill:#FFDC64;" d="M446.07,503.09H65.93c-31.492,0-57.021-25.529-57.021-57.021V65.93
	C8.91,34.438,34.438,8.91,65.93,8.91H446.07c31.492,0,57.021,25.529,57.021,57.021V446.07
	C503.09,477.562,477.562,503.09,446.07,503.09z"/>
<path style="fill:#FFC850;" d="M503.09,264.91V247.09H264.91V8.91H247.09V247.09H94.441V37.42c0-10.398,2.828-20.116,7.691-28.51
	H65.93C34.438,8.91,8.91,34.438,8.91,65.93V446.07c0,31.492,25.529,57.021,57.021,57.021H446.07c21.093,0,39.467-11.484,49.33-28.51
	H264.91V264.91H503.09z M151.462,474.58c-31.492,0-57.021-25.529-57.021-57.021V264.91h152.65V474.58H151.462z"/>
<path style="fill:#E4EAF8;" d="M446.07,503.09H264.91V264.91H503.09v181.16C503.09,477.562,477.562,503.09,446.07,503.09z"/>
<path style="fill:#D5DCED;" d="M264.91,474.58v28.51h181.16c21.093,0,39.467-11.484,49.33-28.51H264.91z"/>
<path d="M446.07,0H65.93C29.576,0,0,29.576,0,65.93V446.07C0,482.424,29.576,512,65.93,512H446.07
	c36.354,0,65.93-29.576,65.93-65.93V65.93C512,29.576,482.424,0,446.07,0z M494.181,446.07c0,26.529-21.582,48.111-48.111,48.111
	H65.93c-26.529,0-48.111-21.582-48.111-48.111V65.93c0-26.529,21.582-48.111,48.111-48.111H446.07
	c26.529,0,48.111,21.582,48.111,48.111V446.07z"/>
<path d="M465.077,247.09h-19.01c-4.92,0-8.91,3.989-8.91,8.91s3.989,8.91,8.91,8.91h19.01c4.92,0,8.91-3.989,8.91-8.91
	S469.997,247.09,465.077,247.09z"/>
<path d="M408.054,264.91c4.92,0,8.91-3.989,8.91-8.91s-3.989-8.91-8.91-8.91H264.91V103.945c0-4.92-3.989-8.91-8.91-8.91
	s-8.91,3.989-8.91,8.91V247.09H46.923c-4.92,0-8.91,3.989-8.91,8.91s3.989,8.91,8.91,8.91H247.09v200.167
	c0,4.92,3.989,8.91,8.91,8.91s8.91-3.989,8.91-8.91V264.91H408.054z"/>
<path d="M256,74.843c4.92,0,8.91-3.989,8.91-8.91V46.923c0-4.92-3.989-8.91-8.91-8.91s-8.91,3.989-8.91,8.91v19.011
	C247.09,70.856,251.08,74.843,256,74.843z"/>
<path d="M75.434,141.364h48.111v48.111c0,4.92,3.989,8.91,8.91,8.91c4.92,0,8.91-3.989,8.91-8.91v-48.111h48.111
	c4.92,0,8.91-3.989,8.91-8.91c0-4.92-3.989-8.91-8.91-8.91h-48.111V75.434c0-4.92-3.989-8.91-8.91-8.91
	c-4.92,0-8.91,3.989-8.91,8.91v48.111H75.434c-4.92,0-8.91,3.989-8.91,8.91C66.524,137.375,70.513,141.364,75.434,141.364z"/>
<path d="M322.524,141.364h114.042c4.92,0,8.91-3.989,8.91-8.91c0-4.92-3.989-8.91-8.91-8.91H322.524c-4.92,0-8.91,3.989-8.91,8.91
	C313.615,137.375,317.604,141.364,322.524,141.364z"/>
<path d="M436.566,342.125H322.524c-4.92,0-8.91,3.989-8.91,8.91c0,4.92,3.989,8.91,8.91,8.91h114.042c4.92,0,8.91-3.989,8.91-8.91
	C445.476,346.114,441.487,342.125,436.566,342.125z"/>
<path d="M436.566,399.146H322.524c-4.92,0-8.91,3.989-8.91,8.91c0,4.92,3.989,8.91,8.91,8.91h114.042c4.92,0,8.91-3.989,8.91-8.91
	C445.476,403.135,441.487,399.146,436.566,399.146z"/>
<path d="M186.272,325.728c-3.479-3.479-9.121-3.479-12.599,0l-41.218,41.218l-41.218-41.218c-3.479-3.479-9.121-3.479-12.599,0
	c-3.479,3.479-3.479,9.121,0,12.599l41.218,41.218l-41.218,41.218c-3.479,3.479-3.479,9.121,0,12.599c1.739,1.74,4.02,2.61,6.3,2.61
	c2.28,0,4.56-0.87,6.3-2.61l41.218-41.218l41.218,41.218c1.739,1.739,4.02,2.61,6.3,2.61c2.28,0,4.56-0.87,6.3-2.61
	c3.479-3.479,3.479-9.121,0-12.599l-41.218-41.218l41.218-41.218C189.751,334.849,189.751,329.206,186.272,325.728z"/>
</svg>